<?xml version="1.0" encoding="UTF-8" standalone="no"?>
<!-- Created with Inkscape (http://www.inkscape.org/) -->

<svg
   width="841mm"
   height="1189mm"
   viewBox="0 0 3178.5828 4493.8584"
   version="1.1"
   id="svg1"
   xmlns="http://www.w3.org/2000/svg"
   xmlns:svg="http://www.w3.org/2000/svg">
  <defs
     id="defs1" />
  <g
     id="layer1">
    <path
       style="fill:#0000ff;fill-opacity:0.384314"
       d="M 0,0 V 300.67409 H 3178.5827 V -5.8219875e-6 Z"
       id="path4" />
    <path
       style="fill:#ffffff;fill-opacity:1"
       d="m 2063,146 h 100.0554 l -48.758,81.26324 z"
       id="path5-6" />
    <text
       xml:space="preserve"
       style="font-weight:bold;font-size:146.632px;font-family:Arial;-inkscape-font-specification:'Arial, Bold';text-align:start;writing-mode:lr-tb;direction:ltr;text-anchor:start;fill:#ffffff;fill-opacity:1"
       x="758.71649"
       y="206.6741"
       id="text4"><tspan
         id="tspan4"
         x="758.71649"
         y="206.6741">Article</tspan></text>
    <path
       style="fill:#ffffff;fill-opacity:1"
       d="m 1264.7884,131.39056 h 100.0554 l -48.758,81.26324 z"
       id="path5" />
    <text
       xml:space="preserve"
       style="font-weight:bold;font-size:146.632px;font-family:Arial;-inkscape-font-specification:'Arial, Bold';text-align:start;writing-mode:lr-tb;direction:ltr;text-anchor:start;fill:#ffffff;fill-opacity:1"
       x="1536.4021"
       y="210.6741"
       id="text5"><tspan
         id="tspan5"
         x="1536.4021"
         y="210.6741">Topics</tspan></text>
    <g
       id="layer1-6"
       transform="matrix(0.73425912,0,0,0.72540289,-879.91462,-567.2973)">
      <path
         style="fill:#0000c1;fill-opacity:1;stroke-width:1.24176"
         d="m 1311.6839,1568.8633 c 88.5483,72.6285 172.2022,6.7696 258.1163,-118.9913 l 5.4622,-3.9984 c -73.1608,87.885 -152.3121,151.4238 -263.5785,122.9897 z"
         id="path3-8-11" />
      <g
         id="layer1-2"
         transform="matrix(3.7795276,0,0,3.7795276,1210.6415,752.66248)"
         style="fill:#0000c1;fill-opacity:1">
        <path
           style="fill:#0000c1;fill-opacity:1;stroke-width:0.246924"
           d="m 108.25212,143.35791 c 9.35513,-3.76197 5.74405,-22.55038 9.81709,-30.7697 4.9391,-8.90988 12.45421,-6.79389 16.20417,0.12667 l 3.79036,7.00495 c 6.06331,1.42309 6.45639,3.86249 10.07965,7.12724 0.4252,-0.0469 -3.05148,0.2138 -4.80927,1.16082 -17.99557,-0.0236 -2.85672,26.42702 -17.34632,52.43022 l 0.091,-0.90036 -2.52169,3.00581 c 9.30448,-9.35919 2.48024,-48.91707 15.722,-52.35101 l 5.8162,-3.1335 c -3.68058,-4.59955 -4.33963,-1.8503 -9.26509,-6.56211 l -2.39255,-5.11577 c -3.74921,-7.49049 -9.44717,-9.50048 -14.42593,-0.90576 -5.38383,11.50948 1.6624,9.32151 -1.41186,16.49125 z"
           id="path1" />
        <path
           style="fill:#0000c1;fill-opacity:1;stroke-width:0.377561"
           d="M 116.91666,108.8209 C 102.73095,71.982907 96.007519,49.464425 109.90327,34.505674 97.133004,51.463344 105.0949,67.458363 112.62473,93.8659 v 0 z"
           id="path2" />
        <path
           style="fill:#0000c1;fill-opacity:1;stroke-width:0.264583"
           d="M 110.29354,28.928884 C 98.826715,39.084461 95.848104,52.746257 97.67662,69.419239 l 0.115426,1.004279 C 96.418414,52.435919 100.36746,38.430144 110.29354,28.928884 Z"
           id="path3" />
        <path
           style="fill:#0000c1;fill-opacity:1;stroke-width:0.214058"
           d="m 98.271912,75.990869 c -1.028944,15.178999 3.507648,32.432361 11.702828,51.402561 l 0.47554,1.11861 C 104.15534,109.73672 99.913103,91.394747 98.271912,75.990869 Z"
           id="path3-8" />
        <path
           style="fill:#0000c1;fill-opacity:1;stroke-width:0.284428"
           d="M 101.14674,126.20019 C 87.462398,94.825121 84.722342,72.808667 92.611701,58.019606 85.60077,74.521186 87.633363,86.237739 96.255803,112.81671 l 2.707896,6.64842 z"
           id="path2-5" />
        <path
           style="fill:#0000c1;fill-opacity:1;stroke-width:0.191389"
           d="m 87.237612,84.403112 c -3.711059,11.902101 -1.605109,26.267178 5.882986,42.444598 l 0.346537,0.95746 C 88.21014,112.42241 85.395656,97.518393 87.237612,84.403112 Z"
           id="path3-8-1" />
        <path
           style="fill:#0000c1;fill-opacity:1;stroke-width:0.264583"
           d="M 104.62942,133.2545 C 94.999121,121.8716 89.658925,119.51992 82.526728,114.58292 36.150004,89.218387 20.751193,68.860239 17.982451,54.206155 22.586166,94.836894 111.18913,119.2605 114.22185,170.96374 c -1.72962,-16.68172 0.10688,-25.65991 -9.59243,-37.70924 z"
           id="path4-3" />
        <path
           style="fill:#0000c1;fill-opacity:1;stroke-width:0.264583"
           d="m 17.462498,61.752341 c -2.03256,23.916035 14.190514,49.558929 48.669221,76.928739 l 4.059618,0.92512 C 24.433514,106.44463 17.660526,96.118894 17.462498,61.752341 Z"
           id="path5-7" />
        <path
           style="fill:#0000c1;fill-opacity:1;stroke-width:0.377561"
           d="M 65.45158,149.54699 C 33.914569,125.80486 16.289166,110.26034 20.158593,90.213316 18.302235,111.36032 33.524736,120.71489 53.893154,139.13184 v 0 z"
           id="path2-7" />
        <path
           style="fill:#0000c1;fill-opacity:1;stroke-width:0.41298"
           d="m 86.706303,167.70687 c -51.745136,-7.34035 -68.499377,-34.20216 -66.796082,-57.6055 2.396225,21.88507 13.250866,34.72092 50.810084,48.05591 l -3.175,1.05834 z"
           id="path2-2" />
        <path
           style="fill:#0000c1;fill-opacity:1;stroke-width:0.390832"
           d="m 84.170089,170.5699 c -27.108646,7.65289 -49.576703,13.1107 -64.37618,-31.96856 16.270328,28.45009 22.212921,32.12046 44.991318,33.72597 l 7.685651,-0.52916 z"
           id="path2-1" />
        <path
           style="fill:#0000c1;fill-opacity:1;stroke-width:0.191389"
           d="m 40.069604,178.33502 c 10.706289,6.38807 25.165956,7.69518 42.644798,4.19224 l 1.011913,-0.11335 c -16.185103,1.51913 -31.334279,0.77509 -43.656711,-4.07889 z"
           id="path3-8-1-7" />
        <path
           style="fill:#0000c1;fill-opacity:1;stroke-width:0.29359"
           d="m 95.644908,172.42068 c -10.863199,28.28216 -21.911234,28.09446 -42.363542,15.62796 16.614462,9.47333 29.260112,9.15784 36.268315,-9.73318 l 0.333173,3.64536 z"
           id="path2-9" />
        <path
           style="fill:#0000c1;fill-opacity:1;stroke-width:0.264583"
           d="M 104.07972,159.36182 C 99.117367,144.87048 87.653047,136.86509 71.559888,132.13835 l -0.971393,-0.27982 c 17.131594,5.65237 28.540062,14.68584 33.491225,27.50329 z"
           id="path3-5" />
      </g>
      <text
         xml:space="preserve"
         style="font-style:normal;font-variant:normal;font-weight:bold;font-stretch:normal;font-size:146.632px;font-family:Serif;-inkscape-font-specification:'Serif, Bold';font-variant-ligatures:normal;font-variant-caps:normal;font-variant-numeric:normal;font-variant-east-asian:normal;text-align:start;writing-mode:lr-tb;direction:ltr;text-anchor:start;fill:#ffd100;fill-opacity:1;stroke-width:1.57106"
         x="2219.9263"
         y="1064.2502"
         id="text1"
         transform="scale(0.69783447,1.4330046)"><tspan
           id="tspan1"
           x="2219.9263"
           y="1064.2502"
           style="fill:#ffd100;fill-opacity:1;stroke-width:1.57106">TRANSFORMATION</tspan></text>
      <path
         style="fill:#0000c1;fill-opacity:1;stroke-width:0.943815"
         d="m 1367.9517,1687.3636 c 86.4294,-23.8907 195.3394,-145.0385 201.3107,-229.49 l 1.842,-4.1892 c -24.3165,75.5441 -143.4376,196.28 -203.1527,233.6792 z"
         id="path3-8-4" />
      <path
         style="fill:#0000c1;fill-opacity:1;stroke-width:0.695763"
         d="m 1467.5681,1683.3636 c 55.0758,-15.0574 106.6521,-106.7997 94.246,-174.021 l 0.4534,-3.2622 c 0.6085,63.0413 -57.8771,154.311 -94.6992,177.2832 z"
         id="path3-8-4-9" />
      <path
         style="fill:#0000c1;fill-opacity:1;stroke-width:0.644251"
         d="m 1528.9867,1687.3636 c 50.8054,-15.6842 78.5766,-96.4235 49.1193,-152.9628 l -0.3823,-2.7989 c 16.6853,53.599 -18.0619,134.2969 -48.7368,155.7617 z"
         id="path3-8-4-9-8" />
      <path
         style="fill:#0000c1;fill-opacity:1;stroke-width:0.964032"
         d="m 1614.5451,1525.2606 c -17.2067,77.4045 -24.4831,162.5623 44.2312,275.8467 l 1.7973,6.0028 c -36.5377,-103.341 -53.8898,-202.039 -46.0285,-281.8495 z"
         id="path3-8-2" />
      <path
         style="fill:#0000c1;fill-opacity:1;stroke-width:1.13361"
         d="m 1641.441,1531.4563 c -20.1417,62.4948 -4.0754,127.852 34.4781,199.4005 l 2.3405,4.3017 c -39.5159,-78.0905 -52.8818,-146.4396 -36.8186,-203.7022 z"
         id="path3-50" />
      <path
         style="fill:#0000c1;fill-opacity:1;stroke-width:1.13361"
         d="m 1648.1043,1536.8575 c -2.0723,65.6277 31.4427,123.9923 88.2802,182.0876 l 3.4389,3.4867 c -59.5716,-64.116 -91.319,-126.1027 -91.7191,-185.5743 z"
         id="path3-50-6" />
      <path
         style="fill:#0000c1;fill-opacity:1;stroke-width:0.333606"
         d="m 1688.3388,1189.2643 c -0.788,2.0737 -3.9401,5.1844 -2.364,6.2212 1.576,1.0369 2.364,-8.5398 2.364,-6.2212 0,2.2599 -3.4144,17.2817 -2.364,18.6637 0.2531,0.3331 6.6489,5.2493 8.2743,3.1107 0.01,-0.01 1.7357,-9.9159 1.1821,-10.8872 -2.1796,-3.8239 -4.7282,-7.2582 -7.0924,-10.8872 z"
         id="path6" />
      <path
         style="fill:#0000c1;fill-opacity:1;stroke-width:1.01423"
         d="m 1647.4533,1518.9274 c 10.4701,52.902 52.5154,87.9357 116.1015,114.8311 l 3.8419,1.6047 c -67.2539,-30.755 -108.3465,-69.2701 -119.9434,-116.4358 z"
         id="path3-50-9" />
      <text
         xml:space="preserve"
         style="font-style:normal;font-variant:normal;font-weight:bold;font-stretch:normal;font-size:147.092px;font-family:Arial;-inkscape-font-specification:'Arial, Bold';font-variant-ligatures:normal;font-variant-caps:normal;font-variant-numeric:normal;font-variant-east-asian:normal;text-align:start;writing-mode:lr-tb;direction:ltr;text-anchor:start;fill:#806000;fill-opacity:1;stroke-width:1.00313"
         x="1859.8466"
         y="1685.8293"
         id="text6"
         transform="scale(1.0031386,0.99687122)"><tspan
           id="tspan6"
           x="1859.8466"
           y="1685.8293"
           style="stroke-width:1.00313">MINDSET</tspan></text>
      <text
         xml:space="preserve"
         style="font-style:normal;font-variant:normal;font-weight:bold;font-stretch:normal;font-size:109.992px;font-family:Arial;-inkscape-font-specification:'Arial, Bold';font-variant-ligatures:normal;font-variant-caps:normal;font-variant-numeric:normal;font-variant-east-asian:normal;text-align:start;writing-mode:lr-tb;direction:ltr;text-anchor:start;fill:#0000c1;fill-opacity:1;stroke-width:0.750115"
         x="2271.5332"
         y="1668.1921"
         id="text7"
         transform="scale(0.92290674,1.0835331)"><tspan
           id="tspan7"
           x="2271.5332"
           y="1668.1921"
           style="fill:#0000c1;fill-opacity:1;stroke-width:0.750115">GLOBAL</tspan></text>
      <path
         style="fill:#ffd100;fill-opacity:0.384314"
         d="m 2576.1632,1382.7696 h 45.3518 v 425.8757 h -45.3518 z"
         id="path10" />
    </g>
    <path
       style="fill:#ececec;fill-opacity:1"
       d="m 1576.5072,544.46389 v 203.1581 h 845.138 v -203.1581 z"
       id="path11" />
    <path
       style="fill:#ffd800;fill-opacity:0.458763"
       d="m 2421.6452,544.46389 v 203.1581 h 593.2218 v -203.1581 z"
       id="path12" />
    <text
       xml:space="preserve"
       style="font-style:normal;font-variant:normal;font-weight:bold;font-stretch:normal;font-size:121.299px;font-family:Arial;-inkscape-font-specification:'Arial, Bold';font-variant-ligatures:normal;font-variant-caps:normal;font-variant-numeric:normal;font-variant-east-asian:normal;text-align:start;writing-mode:lr-tb;direction:ltr;text-anchor:start;fill:#806100;fill-opacity:0.776471"
       x="2491.6453"
       y="693.62201"
       id="text12"><tspan
         id="tspan12"
         x="2491.6453"
         y="693.62201">Search</tspan></text>
    <text
       xml:space="preserve"
       style="font-style:normal;font-variant:normal;font-weight:bold;font-stretch:normal;font-size:94.632px;font-family:Arial;-inkscape-font-specification:'Arial, Bold';font-variant-ligatures:normal;font-variant-caps:normal;font-variant-numeric:normal;font-variant-east-asian:normal;text-align:start;writing-mode:lr-tb;direction:ltr;text-anchor:start;fill:#806100;fill-opacity:0.776471"
       x="1007.6644"
       y="934.52747"
       id="text13"><tspan
         id="tspan13"
         x="1007.6644"
         y="934.52747">Feb 01, 2025 |</tspan></text>
    <text
       xml:space="preserve"
       style="font-style:normal;font-variant:normal;font-weight:bold;font-stretch:normal;font-size:94.632px;font-family:Arial;-inkscape-font-specification:'Arial, Bold';font-variant-ligatures:normal;font-variant-caps:normal;font-variant-numeric:normal;font-variant-east-asian:normal;text-align:start;writing-mode:lr-tb;direction:ltr;text-anchor:start;fill:#ffd800;fill-opacity:0.458824"
       x="1717.6654"
       y="934.52747"
       id="text14"><tspan
         id="tspan14"
         x="1717.6654"
         y="934.52747">Link |</tspan></text>
    <text
       xml:space="preserve"
       style="font-style:normal;font-variant:normal;font-weight:bold;font-stretch:normal;font-size:94.632px;font-family:Arial;-inkscape-font-specification:'Arial, Bold';font-variant-ligatures:normal;font-variant-caps:normal;font-variant-numeric:normal;font-variant-east-asian:normal;text-align:start;writing-mode:lr-tb;direction:ltr;text-anchor:start;fill:#ffd800;fill-opacity:0.458824"
       x="2059.2236"
       y="934.52747"
       id="text15"><tspan
         id="tspan15"
         x="2059.2236"
         y="934.52747">Short  URL |</tspan></text>
    <text
       xml:space="preserve"
       style="font-style:normal;font-variant:normal;font-weight:bold;font-stretch:normal;font-size:161.299px;font-family:Arial;-inkscape-font-specification:'Arial, Bold';font-variant-ligatures:normal;font-variant-caps:normal;font-variant-numeric:normal;font-variant-east-asian:normal;text-align:start;writing-mode:lr-tb;direction:ltr;text-anchor:start;fill:#000000;fill-opacity:0.458824"
       x="1007.6644"
       y="1300.2122"
       id="text16"><tspan
         id="tspan16"
         x="1007.6644"
         y="1300.2122">Be Deliberately Scarce</tspan></text>
    <path
       style="fill:#cccccc;fill-opacity:0.458824"
       d="m 0,1364.865 v 251.9161 H 3178.5827 V 1364.865 Z"
       id="path17" />
    <path
       style="fill:#ffd800;fill-opacity:0.458824;stroke-width:0.806749"
       d="m 1007.6644,1408.865 v 163.9581 h 357.5584 V 1408.865 Z"
       id="path18" />
    <text
       xml:space="preserve"
       style="font-style:normal;font-variant:normal;font-weight:bold;font-stretch:normal;font-size:121.299px;font-family:Arial;-inkscape-font-specification:'Arial, Bold';font-variant-ligatures:normal;font-variant-caps:normal;font-variant-numeric:normal;font-variant-east-asian:normal;text-align:start;writing-mode:lr-tb;direction:ltr;text-anchor:start;fill:#806000;fill-opacity:1"
       x="1011.6644"
       y="1528.8231"
       id="text18"><tspan
         id="tspan18"
         x="1011.6644"
         y="1528.8231">Share</tspan></text>
    <text
       xml:space="preserve"
       style="font-style:normal;font-variant:normal;font-weight:bold;font-stretch:normal;font-size:94.6324px;font-family:Sans;-inkscape-font-specification:'Sans, Bold';font-variant-ligatures:normal;font-variant-caps:normal;font-variant-numeric:normal;font-variant-east-asian:normal;text-align:start;writing-mode:lr-tb;direction:ltr;text-anchor:start;fill:#806000;fill-opacity:1"
       x="1426.5072"
       y="1534.5073"
       id="text19"><tspan
         id="tspan19"
         x="1426.5072"
         y="1534.5073">Related topics:</tspan></text>
    <text
       xml:space="preserve"
       style="font-style:normal;font-variant:normal;font-weight:bold;font-stretch:normal;font-size:94.6324px;font-family:Sans;-inkscape-font-specification:'Sans, Bold';font-variant-ligatures:normal;font-variant-caps:normal;font-variant-numeric:normal;font-variant-east-asian:normal;text-align:start;writing-mode:lr-tb;direction:ltr;text-anchor:start;fill:#806000;fill-opacity:1"
       x="2285.6453"
       y="1530.7811"
       id="text20"><tspan
         id="tspan20"
         x="2285.6453"
         y="1530.7811">Focus | Work</tspan></text>
    <text
       xml:space="preserve"
       style="font-style:normal;font-variant:normal;font-weight:bold;font-stretch:normal;font-size:407.514px;font-family:Sans;-inkscape-font-specification:'Sans, Bold';font-variant-ligatures:normal;font-variant-caps:normal;font-variant-numeric:normal;font-variant-east-asian:normal;text-align:start;writing-mode:lr-tb;direction:ltr;text-anchor:start;fill:#806000;fill-opacity:1;stroke-width:2.02443"
       x="1211.0309"
       y="1701.6793"
       id="text22"
       transform="scale(0.8284445,1.2070815)"><tspan
         id="tspan22"
         x="1211.0309"
         y="1701.6793"
         style="stroke-width:2.02442">W</tspan></text>
    <text
       xml:space="preserve"
       style="font-style:normal;font-variant:normal;font-weight:bold;font-stretch:normal;font-size:80.848px;font-family:Sans;-inkscape-font-specification:'Sans, Bold';font-variant-ligatures:normal;font-variant-caps:normal;font-variant-numeric:normal;font-variant-east-asian:normal;text-align:start;writing-mode:lr-tb;direction:ltr;text-anchor:start;fill:#806000;fill-opacity:1"
       x="1376.5072"
       y="1834.6971"
       id="text23"><tspan
         x="1376.5072"
         y="1834.6971"
         id="tspan26">hen a  product is scarce,</tspan><tspan
         x="1376.5072"
         y="1935.7572"
         id="tspan27"> it's price shoots up. But</tspan><tspan
         x="1376.5072"
         y="2036.8171"
         id="tspan28">when it's all over, people</tspan><tspan
         x="1376.5072"
         y="2137.8772"
         id="tspan30" /><tspan
         x="1376.5072"
         y="2238.9373"
         id="tspan31" /></text>
    <text
       xml:space="preserve"
       style="font-style:normal;font-variant:normal;font-weight:bold;font-stretch:normal;font-size:80.848px;font-family:Sans;-inkscape-font-specification:'Sans, Bold';font-variant-ligatures:normal;font-variant-caps:normal;font-variant-numeric:normal;font-variant-east-asian:normal;text-align:start;writing-mode:lr-tb;direction:ltr;text-anchor:start;fill:#806000;fill-opacity:1"
       x="1007.6644"
       y="2152.2793"
       id="text32"><tspan
         id="tspan32"
         x="1007.6644"
         y="2152.2793">don't value it. You cannot be </tspan><tspan
         x="1007.6644"
         y="2253.3394"
         id="tspan33">everywhere everytime with every-</tspan><tspan
         x="1007.6644"
         y="2354.3994"
         id="tspan34">body attending every ceremony</tspan></text>
    <text
       xml:space="preserve"
       style="font-style:normal;font-variant:normal;font-weight:bold;font-stretch:normal;font-size:80.848px;font-family:Sans;-inkscape-font-specification:'Sans, Bold';font-variant-ligatures:normal;font-variant-caps:normal;font-variant-numeric:normal;font-variant-east-asian:normal;text-align:start;writing-mode:lr-tb;direction:ltr;text-anchor:start;fill:#806000;fill-opacity:1"
       x="1576.5072"
       y="2452.3193"
       id="text35"><tspan
         id="tspan35"
         x="1576.5072"
         y="2452.3193">and expect your price</tspan><tspan
         x="1576.5072"
         y="2553.3794"
         id="tspan36">to be high.</tspan><tspan
         x="1576.5072"
         y="2654.4395"
         id="tspan37">People will get used</tspan><tspan
         x="1576.5072"
         y="2755.4993"
         id="tspan38">to you and treat you</tspan><tspan
         x="1576.5072"
         y="2856.5593"
         id="tspan39">as every other Tom,</tspan><tspan
         x="1576.5072"
         y="2957.6194"
         id="tspan40">Dick and Harry.</tspan></text>
    <text
       xml:space="preserve"
       style="font-style:normal;font-variant:normal;font-weight:bold;font-stretch:normal;font-size:106.895px;font-family:Arial;-inkscape-font-specification:'Arial, Bold';font-variant-ligatures:normal;font-variant-caps:normal;font-variant-numeric:normal;font-variant-east-asian:normal;text-align:start;writing-mode:lr-tb;direction:ltr;text-anchor:start;fill:#000000;fill-opacity:0.458824;stroke-width:1.22985"
       x="1938.8745"
       y="2563.1443"
       id="text41"
       transform="scale(0.81310429,1.2298545)"><tspan
         id="tspan41"
         x="1938.8745"
         y="2563.1443"
         style="font-style:normal;font-variant:normal;font-weight:bold;font-stretch:normal;font-size:106.895px;font-family:Arial;-inkscape-font-specification:'Arial, Bold';font-variant-ligatures:normal;font-variant-caps:normal;font-variant-numeric:normal;font-variant-east-asian:normal;stroke-width:1.22985">Familiarity Breeds Contempt</tspan></text>
    <text
       xml:space="preserve"
       style="font-style:normal;font-variant:normal;font-weight:bold;font-stretch:normal;font-size:94.1816px;font-family:Arial;-inkscape-font-specification:'Arial, Bold';font-variant-ligatures:normal;font-variant-caps:normal;font-variant-numeric:normal;font-variant-east-asian:normal;text-align:start;writing-mode:lr-tb;direction:ltr;text-anchor:start;fill:#806000;fill-opacity:1"
       x="1576.5072"
       y="3334.2991"
       id="text42"><tspan
         id="tspan42"
         x="1576.5072"
         y="3334.2991">Separate yourself from</tspan></text>
    <text
       xml:space="preserve"
       style="font-style:normal;font-variant:normal;font-weight:bold;font-stretch:normal;font-size:93.5616px;font-family:Arial;-inkscape-font-specification:'Arial, Bold';font-variant-ligatures:normal;font-variant-caps:normal;font-variant-numeric:normal;font-variant-east-asian:normal;text-align:start;writing-mode:lr-tb;direction:ltr;text-anchor:start;fill:#806000;fill-opacity:1"
       x="1007.6644"
       y="3447.1699"
       id="text43"><tspan
         id="tspan43"
         x="1007.6644"
         y="3447.1699">the crowd. Stay out of people's eyes</tspan><tspan
         x="1007.6644"
         y="3564.1218"
         id="tspan44">as much as possible. Only get out </tspan><tspan
         x="1007.6644"
         y="3681.074"
         id="tspan45">when on serious business and you</tspan><tspan
         x="1007.6644"
         y="3798.0259"
         id="tspan46">will see the kind of reception and </tspan><tspan
         x="1007.6644"
         y="3914.978"
         id="tspan47">respect you will get.</tspan><tspan
         x="1007.6644"
         y="4031.9299"
         id="tspan48">There is a saying that 'absence makes</tspan><tspan
         x="1007.6644"
         y="4148.8818"
         id="tspan49">the heart grow fonder'. When people</tspan><tspan
         x="1007.6644"
         y="4265.834"
         id="tspan50">don't frequently see you, their hearts</tspan><tspan
         x="1007.6644"
         y="4382.7861"
         id="tspan51">miss you and grow fond of you, so</tspan></text>
  </g>
</svg>
